<svg id="Capa_1" enable-background="new 0 0 512.008 512.008" height="512" viewBox="0 0 512.008 512.008" width="512" xmlns="http://www.w3.org/2000/svg"><g><g><path clip-rule="evenodd" d="m256.018 319.54 83.846 16.498 65.925 91.191c9.442 13.039 8.11 23.613-9.726 23.613-102.787 0-177.332 0-280.119 0-17.835 0-19.168-10.573-9.726-23.613l65.925-91.191z" fill="#bbec6a" fill-rule="evenodd"/></g><g><path clip-rule="evenodd" d="m115.378 259.927 21.38 12.132 7.429 33.988-33.884 21.147c-30.51 19.049-59.319-27.071-28.78-46.12z" fill="#fed1a3" fill-rule="evenodd"/></g><g><path clip-rule="evenodd" d="m329.429 391.739c17.523 4.564 30.085 23.273 23.563 40.139l-7.372 18.964-13.1 33.874c-3.686 14.088-18.204 22.592-32.268 18.936-14.092-3.685-22.599-18.199-18.941-32.259l2.921-20.551 5.019-35.575c2.523-17.915 22.655-28.12 40.178-23.528z" fill="#fed1a3" fill-rule="evenodd"/></g><g><path clip-rule="evenodd" d="m222.758 415.267 5.019 35.575 2.921 20.551c3.658 14.06-4.849 28.573-18.941 32.259-14.064 3.657-28.582-4.847-32.24-18.936l-13.128-33.874-7.372-18.964c-6.522-16.866 6.04-35.575 23.563-40.139 13.079-3.422 28.595 1.335 36.167 12.886 2.098 3.203 3.477 6.848 4.011 10.642z" fill="#fed1a3" fill-rule="evenodd"/></g><g><path clip-rule="evenodd" d="m396.631 259.927 33.856 21.147c30.538 19.049 1.73 65.169-28.78 46.12l-33.884-21.147v-33.109z" fill="#fed1a3" fill-rule="evenodd"/></g><g><path clip-rule="evenodd" d="m323.305 214.175 73.326 45.752-28.809 46.12-27.958-17.433c-20.075-12.671-40.378-31.777-29.546-66.246 4.509-2.438 8.847-5.188 12.987-8.193z" fill="#7bacdf" fill-rule="evenodd"/></g><g><path clip-rule="evenodd" d="m115.378 259.927 73.326-45.752c4.14 3.005 8.478 5.754 13.015 8.192-.851 28.148-3.8 54.709-29.574 66.246l-27.958 17.433z" fill="#7bacdf" fill-rule="evenodd"/></g><g><path clip-rule="evenodd" d="m310.318 222.368c18.062 15.421 29.546 38.296 29.546 63.752v2.495 47.424h-83.846-83.874v-47.424-2.495c0-25.455 11.512-48.331 29.574-63.752 39.442-17.575 54.3-25.541 108.6 0z" fill="#c5e3ff" fill-rule="evenodd"/></g><g><path clip-rule="evenodd" d="m152.154 73.916c22.571 24.038 29.036 50.202-7.769 72.596-16.9-3.345-30.879 8.702-41.483 31.493-7.117 15.307-20.444 6.066-17.58-37.446 2.778-42.236 38.449-61.257 66.832-66.643z" fill="#acacac" fill-rule="evenodd"/></g><g><path clip-rule="evenodd" d="m141.748 125.734c.255 7.115 1.134 14.06 2.637 20.778-16.9-3.345-30.879 8.702-41.483 31.493-5.841 12.558-15.85 8.589-17.665-17.263.907-.935 1.758-2.069 2.552-3.402 13.865-22.535 32.04-34.582 53.959-31.606z" fill="#838383" fill-rule="evenodd"/></g><g><path clip-rule="evenodd" d="m256.018 7.5c-63.147 0-114.327 51.166-114.327 114.265 0 63.128 51.181 114.294 114.327 114.294 63.118 0 114.299-51.166 114.299-114.294 0-63.099-51.18-114.265-114.299-114.265z" fill="#fed1a3" fill-rule="evenodd"/></g><g><path clip-rule="evenodd" d="m359.854 73.945c28.383 5.358 64.054 24.378 66.833 66.615 2.864 43.512-10.463 52.753-17.58 37.446-10.605-22.791-24.584-34.838-41.455-31.493-28.695-26.137-20.614-51.223-7.798-72.568z" fill="#acacac" fill-rule="evenodd"/></g><g><path clip-rule="evenodd" d="m217.115 229.284c12.136 4.394 25.236 6.775 38.903 6.775 19.65 0 38.137-4.961 54.3-13.691 4.508-2.438 8.847-5.187 12.987-8.192 22.117-16.129 38.223-40.025 44.347-67.663 1.758-7.965 2.665-16.243 2.665-24.747 0-6.35-.51-12.586-1.503-18.652-13.894 2.92-27.646 3.742-40.945 2.551 5.303 65.253-45.112 121.805-110.754 123.619z" fill="#ffbc85" fill-rule="evenodd"/></g><g><path clip-rule="evenodd" d="m370.261 125.734c-.255 7.115-1.134 14.06-2.609 20.778 16.871-3.345 30.85 8.702 41.455 31.493 5.841 12.558 15.85 8.589 17.694-17.263-.907-.964-1.786-2.069-2.58-3.402-13.866-22.564-32.042-34.582-53.96-31.606z" fill="#838383" fill-rule="evenodd"/></g><g><path clip-rule="evenodd" d="m256.018 7.5c46.049 0 85.717 27.213 103.836 66.445 4.225 9.128 7.259 18.936 8.96 29.169-48.572 10.205-95.5-5.131-126.917-42.889-1.219-1.474-1.758-.737-2.098-.17-21.578 34.866-58.241 50.457-96.747 43.937 1.673-10.573 4.764-20.665 9.102-30.076 12.59-27.241 35.586-48.7 63.912-59.245 12.42-4.648 25.888-7.171 39.952-7.171z" fill="#acacac" fill-rule="evenodd"/></g><g><path clip-rule="evenodd" d="m359.854 73.945c-18.118-39.232-57.787-66.445-103.836-66.445-1.077 0-2.127 0-3.204.028 42.164 15.25 71.455 53.802 75.056 98.136 13.298 1.191 27.051.369 40.945-2.551-1.702-10.233-4.736-20.041-8.961-29.168z" fill="#838383" fill-rule="evenodd"/></g><g><path clip-rule="evenodd" d="m314.656 336.038h25.208v-47.424-2.495c0-25.455-11.484-48.331-29.546-63.752-4.905 2.636-9.981 4.932-15.255 6.86 17.155 21.941 25.038 52.612 19.593 106.811z" fill="#8ac9fe" fill-rule="evenodd"/></g><g><path clip-rule="evenodd" d="m339.864 336.038h-25.208l45.935 63.525c3.686 3.317 6.607 7.37 8.507 11.792l11.484 15.874c9.414 13.039 8.081 23.613-9.726 23.613h25.208c17.835 0 19.168-10.573 9.726-23.613z" fill="#97d729" fill-rule="evenodd"/></g><g><path clip-rule="evenodd" d="m200.244 406.366 6.295 44.476 1.645 11.622c3.658 14.088-4.849 28.602-18.913 32.258-1.361.368-2.722.595-4.083.737 6.408 7.257 16.616 10.772 26.569 8.192 14.092-3.685 22.599-18.199 18.941-32.259l-2.921-20.551-5.019-35.575c-1.586-11.316-10.564-19.823-21.193-23.08-3.109-.953-6.35-1.478-9.601-1.553 4.413 4.181 7.436 9.688 8.28 15.733z" fill="#ffbc85" fill-rule="evenodd"/></g><g><path clip-rule="evenodd" d="m330.479 422.977-10.803 27.865-9.669 24.973c-2.864 10.942-12.306 18.539-22.996 19.616 3.374 3.883 7.911 6.832 13.242 8.221 14.064 3.657 28.582-4.847 32.268-18.936l13.1-33.874 7.372-18.964c5.739-14.842-3.54-30.976-17.034-37.688-4.543-2.26-9.54-3.45-14.61-3.556 8.897 8.03 13.601 20.787 9.13 32.343z" fill="#ffbc85" fill-rule="evenodd"/></g><g><path clip-rule="evenodd" d="m132.391 287.196-33.856 21.118c-11.002 6.86-21.748 5.273-29.603-.454 3.006 17.008 21.833 31.521 41.37 19.332l33.884-21.147z" fill="#ffbc85" fill-rule="evenodd"/></g><g><path clip-rule="evenodd" d="m139.139 282.973-6.748 4.224 11.796 18.851 27.958-17.433v-2.495c0-9.213 1.503-18.085 4.282-26.419z" fill="#3987d0" fill-rule="evenodd"/></g><g><path clip-rule="evenodd" d="m379.618 287.196 33.856 21.118c11.002 6.86 21.748 5.273 29.603-.454-3.006 17.008-21.833 31.521-41.37 19.332l-33.884-21.147z" fill="#ffbc85" fill-rule="evenodd"/></g><g><path clip-rule="evenodd" d="m372.869 282.973 6.749 4.224-11.796 18.851-27.958-17.433v-2.495c0-9.213-1.503-18.085-4.282-26.419z" fill="#3987d0" fill-rule="evenodd"/></g><g><path d="m434.457 274.71-98.286-61.329c17.837-15.623 31.09-36.354 37.447-59.891 10.656.345 20.289 9.626 28.689 27.677 4.407 9.479 10.397 11.207 14.175 11.207 1.253 0 2.263-.19 2.89-.351 11.554-2.956 16.81-21.407 14.799-51.956-2.825-42.936-36.96-65.509-69.26-72.755-6.32-12.653-14.829-24.235-25.256-34.083-3.013-2.845-7.759-2.71-10.603.303-2.844 3.011-2.708 7.758.303 10.602 9.922 9.371 17.788 20.265 23.398 32.183.168.494.388.966.652 1.412 2.811 6.209 5.017 12.685 6.582 19.365-43.782 6.849-84.396-8.101-112.311-41.651-2.803-3.387-5.987-3.681-7.638-3.56-1.588.12-4.555.833-6.635 4.255-18.118 29.254-48.16 44.366-81.444 41.433 10.996-47.255 53.478-82.571 104.059-82.571 17.271 0 33.744 3.982 48.96 11.836 3.681 1.898 8.205.456 10.104-3.226 1.9-3.681.456-8.204-3.225-10.104-17.364-8.962-36.151-13.506-55.839-13.506-47.606 0-88.914 27.438-108.947 67.318-32.292 7.253-66.41 29.826-69.234 72.75-2.011 30.549 3.245 49 14.799 51.956.627.16 1.637.351 2.891.351 3.778 0 9.768-1.729 14.174-11.205 8.402-18.054 18.035-27.333 28.691-27.679 6.357 23.535 19.606 44.268 37.445 59.891l-98.285 61.328c-10.916 6.809-16.94 17.595-16.529 29.594.44 12.845 8.057 25.048 19.404 31.088 4.768 2.539 9.886 3.8 15.068 3.8 6.34 0 12.774-1.888 18.776-5.635l50.373-31.425v31.479l-64.5 89.22c-9.014 12.447-7.964 20.821-5.497 25.654 2.296 4.497 7.854 9.857 21.297 9.857h45.294l11.138 28.706c2.344 8.555 7.856 15.737 15.562 20.259 5.299 3.109 11.19 4.701 17.157 4.701 2.854 0 5.726-.364 8.558-1.101 17.961-4.696 28.833-23.008 24.414-40.963l-1.641-11.603h39.156l-1.641 11.603c-4.418 17.955 6.453 36.268 24.423 40.966 2.85.741 5.711 1.095 8.529 1.095 14.932 0 28.627-9.944 32.765-24.953l11.124-28.71h45.282c13.443 0 19.001-5.36 21.297-9.857 2.467-4.833 3.517-13.207-5.494-25.65l-64.503-89.224v-31.478l50.37 31.424c6.003 3.748 12.438 5.636 18.779 5.636 5.181 0 10.3-1.262 15.067-3.799 11.348-6.041 18.964-18.244 19.404-31.089.411-12-5.613-22.786-16.527-29.595zm-15.254-133.658c1.314 19.97-1.035 30.299-2.921 34.55-.121-.229-.246-.482-.375-.761-12.317-26.47-26.893-34.94-39.264-36.206.768-5.516 1.174-11.146 1.174-16.869 0-6.413-1.753-20.556-1.805-20.734-.951-5.461-2.268-10.844-3.944-16.107 18.348 6.315 44.851 21.41 47.135 56.127zm-283.605-37.811c-.927 6.042-1.407 12.228-1.407 18.524 0 5.723.406 11.353 1.174 16.868-12.372 1.265-26.946 9.735-39.265 36.209-.129.277-.254.529-.375.759-1.886-4.25-4.235-14.58-2.921-34.55 2.282-34.686 28.74-49.785 47.086-56.11-1.788 5.623-4.275 18.133-4.292 18.3zm250.687 159.092-20.857 33.389-18.105-11.295c-.422-22.661-9.274-44.236-24.746-60.714.294-.193.583-.392.875-.587zm-237.094-140.567c0-3.146.145-6.259.413-9.337 36.692 3.63 70.116-11.436 91.844-41.376 15.374 16.466 34.275 28.741 55.093 35.714 13.712 4.593 28.305 6.903 43.195 6.903 7.493 0 15.061-.589 22.63-1.762.294 3.256.45 6.543.45 9.858 0 58.886-47.91 106.793-106.799 106.793-58.903 0-106.826-47.908-106.826-106.793zm-42.861 199.065c-8.115 5.066-14.731 3.514-18.854 1.32-6.6-3.514-11.206-10.892-11.461-18.36-.16-4.665 1.354-11.288 9.477-16.354l27.506-17.163 20.855 33.388zm40.25-25.109-20.856-33.389 62.831-39.205c.298.199.599.396.899.592-15.488 16.49-24.366 38.065-24.785 60.719zm63.288 200.671c-4.867 1.266-9.959.547-14.338-2.022-4.381-2.571-7.49-6.669-8.754-11.539-.073-.281-.162-.558-.267-.828l-20.498-52.83c-3.89-10.06 1.975-21.008 10.461-26.596 9.089-5.985 21.434-5.889 30.36.409 4.457 3.145 7.731 7.874 8.5 13.332l7.939 56.126c.04.282.096.562.168.838 2.628 10.098-3.464 20.467-13.571 23.11zm136.131-67.225-20.472 52.838c-.103.266-.19.536-.262.812-2.646 10.113-13.019 16.198-23.115 13.578-10.116-2.646-16.208-13.015-13.58-23.114.072-.276.128-.556.168-.838l7.94-56.131c.769-5.461 3.98-10.323 9.04-13.69 7.145-4.756 16.551-5.813 24.567-2.744 7.004 2.681 12.974 8.368 15.608 15.437 1.656 4.445 1.829 9.397.106 13.852zm53.716 2.459c4.537 6.267 4.531 9.558 4.287 10.037-.17.333-2.117 1.678-7.938 1.678h-39.47l3.394-8.759c3.553-9.188 2.895-19.352-1.853-28.616-5.37-10.479-15.394-18.511-26.804-21.482-11.427-2.994-24.109-.883-33.925 5.65-8.674 5.772-14.208 14.326-15.582 24.081l-4.12 29.126h-43.4l-4.119-29.121c-1.852-13.146-11.507-23.625-23.711-28.264-12.675-4.818-27.117-3.312-38.411 4.219-5.948 3.966-10.926 9.42-14.19 15.791-4.748 9.265-5.406 19.428-1.85 28.624l3.395 8.751h-39.474c-5.821 0-7.768-1.345-7.938-1.678-.245-.479-.25-3.771 4.29-10.041l63.68-88.085h62.688c4.142 0 7.5-3.357 7.5-7.5s-3.358-7.5-7.5-7.5h-59.021v-42.419c0-20.642 8.442-40.325 23.311-54.734 16.049 7.796 34.054 12.174 53.063 12.174 19.008 0 37.011-4.38 53.058-12.178 14.854 14.397 23.287 34.081 23.287 54.738v42.419h-58.792c-4.142 0-7.5 3.357-7.5 7.5s3.358 7.5 7.5 7.5h62.461zm36.278-127.837c-.256 7.47-4.862 14.848-11.461 18.361-4.122 2.193-10.738 3.747-18.855-1.321l-27.521-17.169 20.856-33.388 27.506 17.164c8.121 5.066 9.635 11.689 9.475 16.353z"/><path d="m297.587 150.129c4.142 0 7.5-3.357 7.5-7.5v-10.914c0-4.143-3.358-7.5-7.5-7.5s-7.5 3.357-7.5 7.5v10.914c0 4.142 3.358 7.5 7.5 7.5z"/><path d="m214.422 150.129c4.142 0 7.5-3.357 7.5-7.5v-10.914c0-4.143-3.358-7.5-7.5-7.5s-7.5 3.357-7.5 7.5v10.914c0 4.142 3.358 7.5 7.5 7.5z"/><path d="m223.715 186.229c9.053 7.104 20.671 10.655 32.29 10.655s23.236-3.552 32.29-10.655c3.259-2.557 3.828-7.271 1.271-10.53s-7.271-3.826-10.53-1.271c-12.484 9.795-33.577 9.795-46.062 0-3.258-2.557-7.973-1.989-10.53 1.271-2.558 3.259-1.988 7.974 1.271 10.53z"/></g></g></svg>