<?xml version="1.0" encoding="iso-8859-1"?>
<!-- Generator: Adobe Illustrator 19.0.0, SVG Export Plug-In . SVG Version: 6.00 Build 0)  -->
<svg version="1.1" id="Capa_1" xmlns="http://www.w3.org/2000/svg" xmlns:xlink="http://www.w3.org/1999/xlink" x="0px" y="0px"
	 viewBox="0 0 512.001 512.001" style="enable-background:new 0 0 512.001 512.001;" xml:space="preserve">
<g>
	<path style="fill:#91DC5A;" d="M497,241c-48.093,0-92.872,27.441-126.09,77.267C338.94,366.223,321.333,429.698,321.333,497
		c0,8.285,6.716,15,15,15h80.333c8.284,0,15-6.715,15-15c0-61.43,8.61-120.213,24.244-165.52C470.249,289.927,487.262,271,497,271
		c8.284,0,15-6.716,15-15S505.284,241,497,241z"/>
	<path style="fill:#91DC5A;" d="M268.929,170.574c-30.995-52.676-68.335-94.344-110.984-123.845C113.118,15.723,65.024,0,15,0
		C6.716,0,0,6.716,0,15s6.716,15,15,15c31.539,0,68.462,50.223,96.358,131.067c31.797,92.146,49.308,211.45,49.308,335.933
		c0,8.285,6.716,15,15,15s15-6.715,15-15c0-18.467-0.39-36.825-1.137-55.018l62.808-249.261c3.69,0.93,7.732,0.47,11.271-1.612
		C270.748,186.908,273.13,177.714,268.929,170.574z"/>
</g>
<g>
	<path style="fill:#B6E892;" d="M497,0c-46.271,0-91.057,13.529-133.113,40.212c-40.045,25.406-75.905,61.622-106.585,107.643
		c-62.316,93.474-96.636,217.47-96.636,349.146c0,8.285,6.716,15,15,15h160.667c8.284,0,15-6.715,15-15
		c0-124.482,17.511-243.786,49.308-335.933C428.538,80.223,465.461,30,497,30c8.284,0,15-6.716,15-15S505.284,0,497,0z"/>
	<path style="fill:#B6E892;" d="M141.089,318.267C107.871,268.441,63.093,241,15,241c-8.284,0-15,6.716-15,15s6.716,15,15,15
		c9.738,0,26.751,18.927,41.09,60.48C71.723,376.787,80.333,435.569,80.333,497c0,8.285,6.716,15,15,15h80.333
		c8.284,0,15-6.715,15-15C190.666,429.698,173.06,366.223,141.089,318.267z"/>
</g>
<g>
</g>
<g>
</g>
<g>
</g>
<g>
</g>
<g>
</g>
<g>
</g>
<g>
</g>
<g>
</g>
<g>
</g>
<g>
</g>
<g>
</g>
<g>
</g>
<g>
</g>
<g>
</g>
<g>
</g>
</svg>
