<svg id="Capa_1" enable-background="new 0 0 511.972 511.972" height="512" viewBox="0 0 511.972 511.972" width="512" xmlns="http://www.w3.org/2000/svg"><g><g><path clip-rule="evenodd" d="m390.695 417.251c27.81-18.625 36.711-56.812 34.925-74.388-16.394 0-34.746 0-34.746 0-.85.369-19.74 25.968-20.59 26.308-.057.028-.085.028-.142.057-12.445 29.058-27.98 39.604-53.238 60.78-9.78 8.193 48.448 4.253 73.791-12.757z" fill="#a6e0fa" fill-rule="evenodd"/></g><g><path clip-rule="evenodd" d="m119.657 285.428 8.93-35.861-8.93-27.981h-35.152l-6.095 31.921 6.095 31.921z" fill="#eff6ff" fill-rule="evenodd"/></g><g><path clip-rule="evenodd" d="m119.657 285.428-29.426 67.811c-33.734 77.733 108.461 72.97 235.319 32.148-70.757-10.603-137.205-34.784-205.893-99.959z" fill="#a6e0fa" fill-rule="evenodd"/></g><g><path clip-rule="evenodd" d="m335.388 107.68c-132.415-48.704-285.297-39.802-248.615 41.219l32.884 72.687c27.952-98.711 119.403-111.213 215.731-113.906z" fill="#a6e0fa" fill-rule="evenodd"/></g><g><path clip-rule="evenodd" d="m84.505 285.428v-63.842l-49.071-60.922s-44.649 30.362-21.119 92.843c-23.529 62.481 21.119 92.843 21.119 92.843z" fill="#a6e0fa" fill-rule="evenodd"/></g><g><path clip-rule="evenodd" d="m179.33 358.994c27.129-119.746-16.499-118.868-8.136-230.62-37.675 27.357-46.718 69.03-51.537 93.212v63.842c8.136 17.605 22.48 50.093 59.673 73.566z" fill="#fde588" fill-rule="evenodd"/></g><g><path clip-rule="evenodd" d="m339.356 380.766c14.826-61.943 15.988-147.642 4.848-196.26-11.169-48.647-10.404-55.026-3.997-75.012-1.616-.595-3.203-1.219-4.819-1.814-19.192-3.345-36.626-5.245-52.473-5.897-23.699 100.724 29.992 150.052 1.106 284.908 12.785.34 26.619-.057 41.53-1.304 4.621-1.503 9.241-3.033 13.805-4.621z" fill="#fde588" fill-rule="evenodd"/></g><g><path clip-rule="evenodd" d="m372.836 368.122c77.958-32.034 139.133-76.883 130.884-121.731-19.135-53.721-71.835-95.763-133.776-124.424-25.343 38.753 16.924 151.441.34 247.204.851-.34 1.701-.68 2.552-1.049zm71.976-130.802c-6.832 6.86-17.916 6.86-24.776 0-6.832-6.832-6.832-17.917 0-24.749 6.86-6.86 17.944-6.86 24.776 0 6.86 6.832 6.86 17.917 0 24.749z" fill="#fde588" fill-rule="evenodd"/></g><g><path clip-rule="evenodd" d="m256.098 384.65c18.455-76.457 15.903-132.985 6.35-180.102-9.553-47.144-12.105-86.153-7.371-102.595-19.986 1.134-36.938 4.564-51.339 9.639-28.859 100.611 25.315 166.551 1.077 260.301 14.458 5.783 31.41 10.262 51.283 12.757z" fill="#fde588" fill-rule="evenodd"/></g><g><path clip-rule="evenodd" d="m420.036 237.32c6.86 6.86 17.944 6.86 24.776 0 6.86-6.832 6.86-17.917 0-24.749-6.832-6.86-17.916-6.86-24.776 0-6.832 6.832-6.832 17.917 0 24.749z" fill="#eff6ff" fill-rule="evenodd"/></g><g><path clip-rule="evenodd" d="m204.815 371.893c6.463-19.249 11.027-44.792 11.254-78.47.227-31.723-8.76-53.183-12.558-72.29-6.152-30.929-8.164-65.089.227-109.541-12.728 4.451-23.472 10.206-32.544 16.783-15.478 108.549 27.951 107.585 8.136 230.62 7.513 4.733 15.96 9.099 25.485 12.898z" fill="#fe8d94" fill-rule="evenodd"/></g><g><path clip-rule="evenodd" d="m284.021 386.691c38.015-133.184-16.442-182.653-1.106-284.908-9.894-.397-19.163-.34-27.838.17-4.734 16.442-9.128 54.969.425 102.113 9.553 47.116 19.05 104.126.595 180.583 8.732 1.078 18.03 1.787 27.924 2.042z" fill="#fe8d94" fill-rule="evenodd"/></g><g><path clip-rule="evenodd" d="m372.836 368.122c77.958-32.034 139.133-76.883 130.884-121.731-4.592-12.927-11.141-25.174-19.305-36.712.454 1.162.907 2.325 1.304 3.487 7.569 41.078-43.089 82.127-111.55 113.368-.312 14.401-1.474 28.689-3.884 42.637.85-.34 1.7-.68 2.551-1.049z" fill="#fdd76f" fill-rule="evenodd"/></g><g><path clip-rule="evenodd" d="m256.098 384.65c1.191-4.848 2.24-9.639 3.203-14.345 1.162-5.755 2.154-11.396 3.033-16.953-8.533-.312-16.584-.964-24.209-1.928-9.61-1.191-18.511-2.863-26.789-4.904-.227 1.332-.51 2.665-.765 3.969-1.644 7.881-3.6 14.997-5.755 21.404 14.457 5.783 31.409 10.262 51.282 12.757z" fill="#fdd76f" fill-rule="evenodd"/></g><g><path clip-rule="evenodd" d="m284.021 386.691c.85-2.977 1.644-5.925 2.41-8.817 2.24-8.561 4.111-16.783 5.613-24.692-.737.028-1.502.085-2.24.113-8.306.34-16.215.397-23.784.198-1.106-.028-2.211-.085-3.317-.113-.113 0-.255 0-.368-.028-.879 5.556-1.871 11.198-3.033 16.953-.964 4.706-2.013 9.469-3.175 14.316l-.028.028c8.73 1.078 18.028 1.787 27.922 2.042z" fill="#ff6d75" fill-rule="evenodd"/></g><g><path clip-rule="evenodd" d="m325.551 385.387c4.621-1.502 9.242-3.033 13.806-4.621 2.948-12.303 5.358-25.542 7.229-39.235v-.028c.142-1.134.312-2.296.425-3.43-8.391 3.317-16.981 6.464-25.655 9.469-4.564 1.588-9.185 3.147-13.806 4.621-5.301.454-10.461.794-15.507 1.021-1.502 7.909-3.373 16.131-5.613 24.692-.765 2.892-1.559 5.84-2.41 8.817 12.786.338 26.62-.059 41.531-1.306z" fill="#fdd76f" fill-rule="evenodd"/></g><g><path clip-rule="evenodd" d="m370.284 369.171c6.01-18.937 7.371-13.749 10.404-75.749 3.033-61.971-26.931-131.88-10.744-171.455-9.723-4.479-19.674-8.646-29.737-12.474-6.407 19.986-9.156 45.103-2.268 75.012 15.421 67.329 16.244 134.318 1.417 196.26 10.518-3.628 20.865-7.511 30.928-11.594z" fill="#fe8d94" fill-rule="evenodd"/></g><g><path clip-rule="evenodd" d="m370.284 369.171c4.734-14.968 6.605-14.883 8.675-44.848-7.824 3.657-15.875 7.201-24.096 10.574-.879.369-1.729.709-2.58 1.049-1.758.709-3.487 1.417-5.273 2.126-1.758 14.458-4.309 28.718-7.654 42.694 10.518-3.629 20.865-7.512 30.928-11.595z" fill="#ff6d75" fill-rule="evenodd"/></g><g><path clip-rule="evenodd" d="m179.33 358.994c1.276-7.881 2.268-15.223 3.062-22.141-7.739-3.374-14.741-7.087-21.063-11.084-19.248-12.133-32.374-26.676-41.672-40.341 8.136 17.605 22.48 50.093 59.673 73.566z" fill="#fdd76f" fill-rule="evenodd"/></g><g><path clip-rule="evenodd" d="m204.815 371.893c2.154-6.407 4.111-13.522 5.755-21.404.255-1.304.539-2.636.765-3.969-.539-.142-1.077-.283-1.616-.397-5.868-1.503-11.396-3.203-16.64-5.074-2.126-.765-4.224-1.559-6.265-2.353-1.049-.425-2.069-.85-3.118-1.304-.425-.17-.879-.369-1.304-.539-.794 6.917-1.786 14.26-3.062 22.141 7.513 4.734 15.96 9.1 25.485 12.899z" fill="#ff6d75" fill-rule="evenodd"/></g><g><path clip-rule="evenodd" d="m35.434 346.35 49.071-60.922v-32.403c-3.77 5.556-67.752 71.893-65.286 75.692 7.654 11.822 16.215 17.633 16.215 17.633z" fill="#75cef9" fill-rule="evenodd"/></g><g><path clip-rule="evenodd" d="m84.505 253.025h35.152v32.403h-35.152z" fill="#d9eeff" fill-rule="evenodd"/></g><g><path d="m432.461 199.926c-.009 0-.018 0-.026 0-6.681 0-12.967 2.606-17.702 7.342-9.747 9.748-9.747 25.607 0 35.355 4.735 4.735 11.021 7.342 17.702 7.342h.026c6.677-.007 12.95-2.618 17.644-7.331 4.742-4.722 7.354-11.004 7.354-17.689s-2.611-12.966-7.331-17.667c-4.717-4.734-10.991-7.345-17.667-7.352zm7.037 32.101c-1.884 1.892-4.389 2.935-7.053 2.938-.004 0-.007 0-.011 0-2.674 0-5.193-1.047-7.095-2.948-3.899-3.899-3.899-10.243 0-14.142 1.901-1.902 4.421-2.949 7.095-2.949h.011c2.664.002 5.169 1.046 7.075 2.959 1.894 1.886 2.938 4.394 2.938 7.06 0 2.667-1.044 5.174-2.96 7.082z"/><path d="m511.095 245.036c-.072-.395-.177-.783-.312-1.162-15.318-42.991-52.612-82.212-107.85-113.425-47.059-26.592-104.812-46.168-162.619-55.125-35.842-5.553-69.111-6.514-96.212-2.782-29.986 4.13-50.785 13.589-61.82 28.113-7.313 9.626-13.656 26.346-2.343 51.335l28.092 62.096h-19.936l-46.819-58.127c-2.452-3.043-6.828-3.693-10.058-1.497-.518.352-12.794 8.823-21.782 25.661-8.022 15.027-14.926 39.823-3.103 73.384-11.823 33.561-4.919 58.357 3.102 73.384 8.988 16.837 21.264 25.309 21.782 25.661 3.231 2.196 7.607 1.545 10.058-1.498l46.819-58.127h20.132l-24.875 57.324c-7.388 17.019-7.577 31.621-.561 43.4 9.178 15.41 29.794 24.614 61.275 27.356 4.13.365 7.763-2.695 8.123-6.821.359-4.126-2.694-7.763-6.821-8.123-25.659-2.235-43.305-9.37-49.689-20.089-4.407-7.399-3.925-17.409 1.434-29.752l22.883-52.733c8.559 16.68 22.069 37.879 46.493 55.814 26.579 19.518 60.735 30.911 101.96 34.084-31.871 7.362-62.957 12.019-90.123 13.193-4.138.179-7.348 3.679-7.169 7.817.174 4.028 3.494 7.176 7.488 7.176.109 0 .219-.002.33-.007 43.365-1.875 97.158-12.463 148.52-28.945.257-.069 9.812-3.216 14.303-4.767.01-.003 7.402-2.603 12.35-4.408-8.655 13.121-19.24 21.887-34.015 34.118-2.57 2.128-5.25 4.347-8.044 6.691-4.839 4.054-4.458 9.341-2.057 12.538 1.056 1.406 3.653 4.865 16.57 4.865 5.141 0 11.916-.548 20.878-1.992 9.206-1.482 32.252-6.028 47.389-16.188 27.485-18.408 38.656-54.417 38.467-76.375 26.952-15.577 47.83-32.146 61.094-48.788 14.268-17.897 19.875-35.824 16.666-53.279zm-434.09 37.747-42.568 52.849c-7.287-7.219-19.589-23.142-19.381-48.055l30.45-9.171c3.966-1.194 6.213-5.378 5.018-9.344-1.194-3.966-5.38-6.214-9.344-5.018l-24.327 7.327c1.01-4.817 2.472-9.888 4.48-15.221.641-1.704.641-3.583 0-5.286-2.709-7.193-4.427-13.897-5.391-20.139l24.706 9.511c.886.341 1.797.503 2.693.503 3.012 0 5.854-1.828 7-4.807 1.488-3.866-.439-8.206-4.304-9.694l-30.938-11.911c1.285-22.122 12.461-36.306 19.303-42.987l42.602 52.89v58.553zm35.152-4.855h-20.152v-48.842h20.152zm5.172-79.683-23.724-52.439c-6.73-14.867-6.526-26.667.622-36.077 17.285-22.75 73.725-30.437 143.791-19.583 7.57 1.173 15.136 2.539 22.676 4.077-44.179 1.555-78.999 13.664-103.966 36.261-22.92 20.747-33.681 47.147-39.399 67.761zm56.37 147.617c-27.416-20.802-39.339-46.472-46.542-62.082v-61.455c3.632-18.25 10.283-50.434 34.341-75.562-3.675 41.11 1.856 65.612 7.232 89.402 6.111 27.044 12.412 54.956 4.969 109.697zm26.425 15.775c-4.462-2.06-8.661-4.249-12.598-6.547 9.398-62.166 2.509-92.694-4.165-122.23-6.012-26.601-11.689-51.774-5.187-100.172 4.951-3.372 10.259-6.382 15.918-9.033-5.228 34.677-4.546 65.71 2.063 98.941 1.097 5.518 2.578 11.107 4.146 17.026 3.95 14.909 8.426 31.807 8.269 53.751-.175 26.019-3.015 48.933-8.446 68.264zm78.247 17.337c-4.494-.208-8.846-.514-13.072-.906 13.408-61.117 9.03-108.309 3.565-142.938-.646-4.091-4.479-6.886-8.577-6.239-4.092.646-6.885 4.486-6.239 8.577 5.298 33.571 9.542 79.398-3.701 138.766-13.532-2.085-25.555-5.148-36.253-8.934 6.095-20.98 9.287-45.763 9.476-73.824.171-23.95-4.786-42.661-8.769-57.697-1.506-5.685-2.928-11.054-3.934-16.11-6.791-34.146-6.961-65.904-.535-102.344 10.706-3.398 22.42-5.756 35.131-7.065-4.041 21.68-5.252 56.11 2.688 95.295.721 3.557 3.848 6.012 7.343 6.012.494 0 .995-.049 1.498-.151 4.06-.823 6.684-4.78 5.861-8.84-8.479-41.841-5.595-76.174-1.855-93.373 4.359-.156 8.816-.206 13.381-.144-4.766 40.739 1.177 73.961 6.937 106.156 8.095 45.245 16.446 92.003-2.945 163.759zm54.609-3.927c-2.93.992-5.868 1.971-8.818 2.924-10.709.886-20.806 1.304-30.361 1.327 19.042-72.924 10.536-120.586 2.28-166.725-5.874-32.835-11.434-63.953-6.664-102.924 13.088.813 26.936 2.442 41.538 4.893-5.926 22.716-6.053 46.775-.327 71.637 15.106 65.947 15.888 129.463 2.352 188.868zm16.605-5.862c11.947-58.952 10.504-121.569-4.337-186.362-5.078-22.05-5.094-43.314-.083-63.339 5.24 2.1 10.408 4.281 15.495 6.543-6.534 23.55-1.237 54.088 4.345 86.247 4.658 26.836 9.475 54.587 8.192 80.782-2.537 51.859-3.823 55.578-7.642 66.616-.409 1.183-.854 2.475-1.328 3.892-4.827 1.922-9.707 3.8-14.642 5.621zm36.93 41.839c-13.678 9.18-38.088 14.061-53.475 15.328 18.177-15.097 31.803-27.244 42.746-51.325 15.052-6.184 29.102-12.674 42.007-19.394-2.193 17.266-11.23 41.964-31.278 55.391zm96.185-122.053c-19.594 24.585-56.522 47.762-100.219 66.959 2.387-9.027 3.708-21.463 5.699-62.14 1.363-27.856-3.598-56.439-8.396-84.081-5.083-29.287-9.912-57.137-5.285-77.245 7.225 3.525 14.261 7.205 21.055 11.044 51.793 29.267 86.664 65.5 100.89 104.815 2.15 12.831-2.472 26.504-13.744 40.648z"/></g></g></svg>