<svg id="Capa_1" enable-background="new 0 0 512 512" height="512" viewBox="0 0 512 512" width="512" xmlns="http://www.w3.org/2000/svg"><g><g><path d="m285.892 26.903 50.961 107.827c4.856 10.273 14.241 17.395 25.099 19.042l113.953 17.291c27.342 4.149 38.259 39.235 18.475 59.374l-82.457 83.932c-7.856 7.997-11.441 19.519-9.587 30.811l19.466 118.514c4.671 28.436-23.911 50.12-48.367 36.695l-101.923-55.954c-9.711-5.332-21.312-5.332-31.024 0l-101.923 55.954c-24.455 13.426-53.037-8.259-48.367-36.695l19.466-118.514c1.855-11.292-1.731-22.813-9.587-30.811l-82.457-83.932c-19.785-20.139-8.867-55.225 18.475-59.374l113.953-17.291c10.857-1.648 20.244-8.768 25.099-19.042l50.961-107.827c12.227-25.871 47.557-25.871 59.784 0z" fill="#faf063"/><path d="m416.429 489.356c-.62.93-37.887 13.829-42.997 11.029l-101.923-55.946c-8.099-4.46-17.529-5.19-26.068-2.21l25.048-12.789c9.709-5.34 21.308-5.34 31.018 0l101.923 55.946c4.279 2.34 8.679 3.62 12.999 3.97z" fill="#f8e837"/><path d="m113.2 470.957c-2.01 13.359 2.14 25.348 9.459 33.508-19.269-.25-36.127-18.429-32.458-40.767l19.459-118.522c1.86-11.289-1.73-22.808-9.579-30.808l-82.464-83.934c-19.369-19.719-9.299-53.776 16.799-59.066-6.42 13.959-5.28 32.218 6.2 44.987l82.464 91.614c7.849 8.729 11.439 21.298 9.579 33.628z" fill="#f8e837"/><circle cx="256" cy="255.982" fill="#ebb34c" r="40.497"/><path d="m292.187 274.171c-6.66 13.229-20.359 22.308-36.187 22.308-22.368 0-40.497-18.129-40.497-40.497 0-15.829 9.079-29.528 22.308-36.187-2.76 5.47-4.31 11.649-4.31 18.189 0 22.368 18.129 40.497 40.497 40.497 6.54-.001 12.72-1.55 18.189-4.31z" fill="#e9a52d"/><g fill="#ebb34c"><circle cx="255.5" cy="154.489" r="26.998"/><circle cx="255.5" cy="77.495" r="17.999"/><circle cx="157.095" cy="232.764" r="26.998"/><circle cx="82.074" cy="215.444" r="17.999"/><circle cx="202.485" cy="342.05" r="26.998"/><circle cx="160.83" cy="408.047" r="17.999"/><circle cx="311.504" cy="340.182" r="26.998"/><circle cx="351.439" cy="404.755" r="17.999"/><circle cx="353.904" cy="232.764" r="26.998"/></g><g fill="#e9a52d"><path d="m280.558 164.548c-3.99 9.929-13.709 16.939-25.058 16.939-14.909 0-26.998-12.089-26.998-26.998 0-11.349 7.009-21.069 16.939-25.058-1.25 3.11-1.94 6.5-1.94 10.059 0 14.909 12.089 26.998 26.998 26.998 3.56 0 6.95-.69 10.059-1.94z"/><path d="m182.155 242.813c-4.86 12.159-17.989 19.289-31.138 16.259-14.519-3.36-23.578-17.849-20.229-32.378 2.07-8.939 8.349-15.809 16.259-18.989-.52 1.28-.94 2.61-1.26 3.99-3.35 14.529 5.71 29.018 20.229 32.378 5.6 1.29 11.19.74 16.139-1.26z"/><path d="m227.542 352.105c-.53 1.31-1.17 2.6-1.92 3.85-7.679 12.779-24.258 16.919-37.037 9.239-12.789-7.679-16.919-24.268-9.239-37.047 3.15-5.25 7.809-9.039 13.079-11.149-4.87 12.089-.38 26.268 11.159 33.198 7.539 4.529 16.389 4.949 23.958 1.909z"/><path d="m336.554 350.245c-2 4.99-5.5 9.429-10.349 12.579-12.499 8.119-29.218 4.57-37.347-7.939-8.119-12.509-4.56-29.228 7.939-37.347 1.5-.97 3.05-1.78 4.65-2.42-3.15 7.869-2.56 17.109 2.41 24.768 7.159 11.009 20.968 15.079 32.697 10.359z"/><path d="m378.961 242.823c-3.19 7.909-10.049 14.179-18.979 16.249-14.529 3.35-29.028-5.71-32.388-20.239-3.03-13.149 4.1-26.258 16.249-31.118-1.99 4.94-2.54 10.529-1.25 16.119 3.36 14.529 17.859 23.588 32.388 20.239 1.381-.32 2.71-.74 3.98-1.25z"/></g><circle cx="428.926" cy="214.444" fill="#ebb34c" r="17.999"/></g><g><path d="m175.966 471.301-41.009 22.514c-8.493 4.664-18.306 4.094-26.246-1.524-8.625-6.103-12.883-16.595-11.111-27.381l19.466-118.514c2.241-13.646-2.11-27.584-11.638-37.281l-82.458-83.932c-7.383-7.516-9.852-18.538-6.443-28.764 3.255-9.762 10.99-16.469 20.692-17.941l80.1-12.153c4.095-.621 6.912-4.444 6.29-8.539-.621-4.095-4.441-6.908-8.539-6.29l-80.1 12.152c-15.385 2.335-27.598 12.812-32.671 28.025-5.201 15.598-1.38 32.465 9.972 44.019l82.456 83.932c6.188 6.299 9.005 15.397 7.536 24.339l-19.465 118.516c-2.709 16.497 3.9 32.612 17.249 42.057 12.766 9.034 28.528 9.898 42.127 2.428l41.009-22.514c3.631-1.993 4.958-6.553 2.965-10.183-1.992-3.632-6.549-4.96-10.182-2.966z"/><path d="m422.753 292.643-16.181 16.471c-9.528 9.697-13.879 23.635-11.638 37.281l19.466 118.514c1.772 10.786-2.486 21.279-11.111 27.381-7.939 5.62-17.752 6.189-26.246 1.524l-101.922-55.953c-11.974-6.574-26.27-6.575-38.242 0l-30.227 16.595c-3.631 1.993-4.958 6.553-2.965 10.183s6.55 4.958 10.183 2.965l30.227-16.595c7.453-4.092 16.353-4.092 23.806 0l101.922 55.954c13.599 7.47 29.361 6.607 42.127-2.428 13.349-9.444 19.959-25.56 17.249-42.057l-19.466-118.514c-1.469-8.941 1.349-18.041 7.536-24.339l16.181-16.471c2.903-2.954 2.861-7.702-.094-10.605-2.954-2.902-7.702-2.861-10.605.094z"/><path d="m509.701 191.675c-5.073-15.214-17.287-25.69-32.671-28.025l-113.952-17.291c-8.387-1.272-15.656-6.817-19.444-14.832l-50.962-107.829c-6.908-14.618-20.96-23.698-36.672-23.698s-29.764 9.08-36.672 23.698l-50.961 107.828c-3.788 8.014-11.056 13.559-19.444 14.831-4.095.621-6.912 4.445-6.29 8.539.622 4.095 4.443 6.909 8.539 6.29 13.332-2.022 24.83-10.715 30.754-23.251l50.961-107.827c4.472-9.461 13.111-15.109 23.112-15.109s18.641 5.648 23.112 15.109l50.961 107.826c5.925 12.537 17.421 21.23 30.754 23.252l113.952 17.291c9.702 1.473 17.438 8.179 20.693 17.941 3.41 10.226.941 21.248-6.443 28.764l-41.748 42.495c-2.903 2.954-2.861 7.702.094 10.605 2.953 2.901 7.701 2.862 10.605-.095l41.748-42.495c11.353-11.554 15.174-28.421 9.974-44.017z"/><path d="m256 303.979c26.465 0 47.997-21.53 47.997-47.997 0-6.477-1.27-12.762-3.775-18.685-1.614-3.815-6.013-5.6-9.828-3.986-3.815 1.613-5.6 6.014-3.986 9.827 1.719 4.064 2.59 8.385 2.59 12.843 0 18.195-14.803 32.998-32.998 32.998s-32.998-14.803-32.998-32.998 14.803-32.998 32.998-32.998c3.102 0 6.169.429 9.117 1.274 3.98 1.135 8.134-1.161 9.275-5.143 1.142-3.982-1.161-8.135-5.143-9.276-4.293-1.23-8.75-1.854-13.251-1.854-26.465 0-47.997 21.53-47.997 47.997s21.534 47.998 47.999 47.998z"/><path d="m255.5 188.987c19.022 0 34.498-15.476 34.498-34.498s-15.476-34.498-34.498-34.498-34.498 15.476-34.498 34.498 15.475 34.498 34.498 34.498zm0-53.996c10.751 0 19.499 8.747 19.499 19.499 0 10.751-8.747 19.499-19.499 19.499s-19.499-8.747-19.499-19.499 8.747-19.499 19.499-19.499z"/><path d="m255.484 102.994c14.639.058 26.462-12.536 25.46-27.146-.908-14.029-13.062-24.71-27.092-23.798-14.03.909-24.706 13.062-23.797 27.093.872 13.471 12.112 23.851 25.429 23.851zm-.663-35.978c.23-.015.458-.022.685-.022 5.483 0 10.112 4.274 10.471 9.821.374 5.778-4.022 10.782-9.798 11.156-5.783.377-10.782-4.022-11.156-9.799s4.021-10.781 9.798-11.156z"/><path d="m127.84 251.044c4.883 7.814 12.517 13.26 21.495 15.333 18.064 4.318 37.169-7.187 41.373-25.852 4.545-17.983-7.699-37.575-25.853-41.374-17.98-4.547-37.575 7.7-41.373 25.852-2.073 8.979-.525 18.227 4.358 26.041zm10.256-22.666c2.377-10.551 13.174-17.053 23.385-14.613 10.261 2.147 17.181 13.221 14.613 23.385-2.419 10.477-12.91 17.027-23.385 14.613-10.261-2.148-17.181-13.222-14.613-23.385z"/><path d="m86.193 190.281c-13.481-2.496-27.347 7.473-29.282 21.044-2.271 13.875 7.168 27.011 21.045 29.283 13.568 2.317 27.073-7.1 29.282-21.045 2.493-13.48-7.474-27.349-21.045-29.282zm6.243 26.858c-.935 5.714-6.34 9.604-12.057 8.666-5.714-.936-9.601-6.346-8.666-12.058.786-5.587 6.532-9.699 12.058-8.665 5.587.797 9.691 6.507 8.665 12.057z"/><path d="m232.055 359.818c9.878-15.698 4.29-38.115-11.802-47.338-15.696-9.88-38.116-4.289-47.338 11.803-9.796 16.305-4.502 37.539 11.803 47.338 7.913 4.764 17.242 6.124 26.113 3.902 8.941-2.23 16.478-7.808 21.224-15.705zm-39.613-1.054c-9.215-5.538-12.208-17.541-6.672-26.757 5.224-9.091 17.85-12.259 26.756-6.671 9.095 5.213 12.254 17.884 6.671 26.756-2.683 4.465-6.943 7.616-11.996 8.877-5.052 1.261-10.294.478-14.759-2.205z"/><path d="m138.171 396.354c-3.124 6.053-3.704 12.959-1.632 19.447 3.094 10.363 13.555 17.908 24.248 17.741 16.383.635 30.018-17.407 24.333-33.249-2.071-6.489-6.545-11.781-12.598-14.905-12.493-6.446-27.904-1.527-34.351 10.966zm13.328 6.879c2.667-5.194 9.103-7.147 14.145-4.516 5.069 2.484 7.207 9.183 4.515 14.145-2.654 5.146-9 7.173-14.145 4.516-5.068-2.485-7.206-9.185-4.515-14.145z"/><path d="m292.715 311.249c-15.953 10.36-20.503 31.769-10.143 47.722 9.798 15.752 32.311 20.577 47.721 10.143 15.953-10.359 20.504-31.768 10.144-47.722-10.361-15.952-31.769-20.504-47.722-10.143zm35.143 18.312c5.856 9.018 3.284 21.119-5.734 26.974-8.67 5.893-21.447 3.174-26.973-5.733-5.856-9.017-3.284-21.117 5.733-26.973 9.017-5.855 21.116-3.285 26.974 5.732z"/><path d="m355.118 379.523c-6.738-.979-13.458.718-18.919 4.79-11.158 7.963-13.621 24.862-5.204 35.681 7.977 11.15 24.814 13.635 35.682 5.204 11.157-7.963 13.621-24.865 5.204-35.682-4.07-5.461-10.023-9.01-16.763-9.993zm6.711 26.747c-.405 2.775-1.866 5.227-4.114 6.902-4.456 3.462-11.414 2.453-14.693-2.144-3.467-4.456-2.452-11.412 2.143-14.692 4.476-3.472 11.407-2.449 14.693 2.143 1.675 2.25 2.376 5.016 1.971 7.791z"/><path d="m383.16 251.044c4.883-7.813 6.431-17.062 4.358-26.041-3.798-18.153-23.392-30.398-41.373-25.852-18.155 3.798-30.398 23.392-25.853 41.374 4.204 18.667 23.309 30.17 41.373 25.852 8.978-2.074 16.611-7.518 21.495-15.333zm-12.72-7.948c-2.76 4.417-7.075 7.494-12.149 8.666-10.478 2.413-20.966-4.138-23.385-14.613-2.569-10.164 4.352-21.238 14.613-23.385 10.21-2.44 21.009 4.063 23.385 14.613 1.171 5.076.296 10.302-2.464 14.719z"/><path d="m451.377 226.531c3.229-5.998 3.928-12.893 1.971-19.416-4.041-13.467-18.284-21.137-31.751-17.095-13.466 4.042-21.134 18.285-17.094 31.751 2.992 10.589 13.449 18.309 24.388 18.183 9.24.051 18.172-5.216 22.486-13.423zm-13.207-7.11c-1.33 2.47-3.541 4.274-6.228 5.08-5.372 1.735-11.563-1.6-13.074-7.038-1.664-5.546 1.494-11.41 7.037-13.074 5.4-1.663 11.426 1.446 13.075 7.039.808 2.684.519 5.524-.81 7.993z"/></g></g></svg>